<?xml version="1.0"?>
<svg xmlns="http://www.w3.org/2000/svg" xmlns:xlink="http://www.w3.org/1999/xlink" xmlns:svgjs="http://svgjs.com/svgjs" version="1.1" width="512" height="512" x="0" y="0" viewBox="0 0 512 512" style="enable-background:new 0 0 512 512" xml:space="preserve" class=""><g><path xmlns="http://www.w3.org/2000/svg" d="m336 192h-16v-64c0-70.59375-57.40625-128-128-128s-128 57.40625-128 128v64h-16c-26.453125 0-48 21.523438-48 48v224c0 26.476562 21.546875 48 48 48h288c26.453125 0 48-21.523438 48-48v-224c0-26.476562-21.546875-48-48-48zm-229.332031-64c0-47.0625 38.269531-85.332031 85.332031-85.332031s85.332031 38.269531 85.332031 85.332031v64h-170.664062zm0 0" fill="#e1852f" data-original="#000000" style="" class=""/></g></svg>
